<?xml version="1.0" encoding="utf-8"?>
<!-- Generator: Adobe Illustrator 16.0.3, SVG Export Plug-In . SVG Version: 6.00 Build 0)  -->
<!DOCTYPE svg PUBLIC "-//W3C//DTD SVG 1.1//EN" "http://www.w3.org/Graphics/SVG/1.1/DTD/svg11.dtd">
<svg version="1.1" id="Calque_1" xmlns="http://www.w3.org/2000/svg" xmlns:xlink="http://www.w3.org/1999/xlink" x="0px" y="0px"
	 width="279.744px" height="80.089px" viewBox="7.75 0 279.744 80.089" enable-background="new 7.75 0 279.744 80.089"
	 xml:space="preserve">
<g>
	<g>
		<path fill="#FFFFFF" d="M96.707,52.438c0,3.736-2.345,6.021-6.2,6.021c-3.856,0-6.223-2.284-6.223-6.021v-8.362h2.408v8.362
			c0,2.411,1.488,3.856,3.834,3.856c2.326,0,3.774-1.427,3.774-3.856v-8.362h2.408v8.362H96.707z"/>
		<path fill="#FFFFFF" d="M109.883,51.604v6.749h-2.346v-6.1c0-1.629-0.979-2.63-2.611-2.63c-1.796,0.021-2.918,1.265-3.081,2.958
			v5.771H99.5v-10.85h2.346v2.079c0.775-1.509,2.163-2.161,3.998-2.161C108.374,47.422,109.883,49.012,109.883,51.604z"/>
		<path fill="#FFFFFF" d="M115.043,44.402c0,0.817-0.592,1.408-1.367,1.408c-0.776,0-1.367-0.59-1.367-1.408
			c0-0.835,0.592-1.426,1.367-1.426S115.043,43.567,115.043,44.402z M112.514,58.355V47.503h2.326v10.852H112.514z"/>
		<path fill="#FFFFFF" d="M120.287,58.355l-4.203-10.852h2.448l3.02,8.548l2.978-8.548h2.345l-4.162,10.852H120.287L120.287,58.355z
			"/>
		<path fill="#FFFFFF" d="M129.341,57.172c0,0.798-0.551,1.369-1.286,1.369c-0.733,0-1.284-0.571-1.284-1.369
			c0-0.774,0.55-1.327,1.284-1.327C128.79,55.844,129.341,56.397,129.341,57.172z"/>
		<path fill="#FFFFFF" d="M148.272,51.338v5.262c-1.449,1.104-3.591,1.859-5.549,1.859c-4.222,0-7.507-3.161-7.507-7.243
			c0-4.08,3.326-7.201,7.648-7.201c2.041,0,4.081,0.775,5.489,2l-1.367,1.775c-1.101-1.02-2.632-1.633-4.122-1.633
			c-2.917,0-5.2,2.224-5.2,5.06c0,2.856,2.303,5.078,5.222,5.078c1.06,0,2.263-0.364,3.284-0.979v-3.977H148.272z"/>
		<path fill="#FFFFFF" d="M153.368,49.666c0.735-1.47,2.041-2.245,3.754-2.245v2.245c-2.182-0.122-3.571,1.163-3.754,3.017v5.672
			h-2.345V47.503h2.345V49.666z"/>
		<path fill="#FFFFFF" d="M168.098,53.827h-8.202c0.369,1.673,1.653,2.713,3.367,2.713c1.182,0,2.264-0.448,3.061-1.264l1.245,1.324
			c-1.062,1.165-2.612,1.837-4.49,1.837c-3.345,0-5.549-2.223-5.549-5.487c0-3.283,2.266-5.509,5.487-5.527
			C166.833,47.422,168.384,49.91,168.098,53.827z M166.057,52.113c-0.082-1.753-1.244-2.813-3.018-2.813
			c-1.714,0-2.917,1.082-3.183,2.813H166.057z"/>
		<path fill="#FFFFFF" d="M180.417,51.604v6.749h-2.347v-6.1c0-1.629-0.979-2.63-2.61-2.63c-1.796,0.021-2.918,1.265-3.08,2.958
			v5.771h-2.346v-10.85h2.346v2.079c0.775-1.509,2.161-2.161,3.997-2.161C178.906,47.422,180.417,49.012,180.417,51.604z"/>
		<path fill="#FFFFFF" d="M193.35,52.929c0,3.264-2.306,5.508-5.651,5.508c-3.365,0-5.673-2.244-5.673-5.508
			c0-3.284,2.308-5.508,5.673-5.508C191.044,47.422,193.35,49.644,193.35,52.929z M184.374,52.949c0,2.104,1.367,3.527,3.325,3.527
			c1.938,0,3.306-1.423,3.306-3.527c0-2.08-1.367-3.506-3.306-3.506C185.74,49.443,184.374,50.869,184.374,52.949z"/>
		<path fill="#FFFFFF" d="M206.71,52.97c0,3.243-2.039,5.466-5.14,5.466c-1.736,0-3.04-0.694-3.836-1.96v1.879h-2.347V43.219h2.347
			v6.161c0.796-1.265,2.1-1.958,3.793-1.958C204.609,47.422,206.71,49.666,206.71,52.97z M204.345,52.888
			c0-2.019-1.368-3.508-3.306-3.508s-3.305,1.469-3.305,3.508c0,2.099,1.367,3.55,3.305,3.55S204.345,54.969,204.345,52.888z"/>
		<path fill="#FFFFFF" d="M208.747,58.355V43.219h2.348v15.134h-2.348V58.355z"/>
		<path fill="#FFFFFF" d="M223.701,53.827H215.5c0.368,1.673,1.651,2.713,3.368,2.713c1.18,0,2.262-0.448,3.056-1.264l1.247,1.324
			c-1.062,1.165-2.613,1.837-4.489,1.837c-3.344,0-5.548-2.223-5.548-5.487c0-3.283,2.265-5.509,5.487-5.527
			C222.435,47.422,223.987,49.91,223.701,53.827z M221.659,52.113c-0.078-1.753-1.243-2.813-3.018-2.813
			c-1.714,0-2.915,1.082-3.181,2.813H221.659z"/>
		<path fill="#FFFFFF" d="M232.55,55.132l-1.365,3.222h-2.509l6.302-14.277h2.47l6.241,14.277h-2.57l-1.366-3.222H232.55z
			 M236.142,46.647l-2.691,6.342h5.384L236.142,46.647z"/>
		<path fill="#FFFFFF" d="M245.034,58.355V43.219h2.349v15.134h-2.349V58.355z"/>
		<path fill="#FFFFFF" d="M261.864,52.97c0,3.243-2.04,5.466-5.143,5.466c-1.733,0-3.04-0.694-3.833-1.96v5.838h-2.347V47.503h2.347
			v1.877c0.793-1.264,2.1-1.958,3.792-1.958C259.761,47.422,261.864,49.666,261.864,52.97z M259.499,52.888
			c0-2.019-1.368-3.508-3.307-3.508c-1.938,0-3.304,1.469-3.304,3.508c0,2.099,1.366,3.55,3.304,3.55
			C258.131,56.438,259.499,54.969,259.499,52.888z"/>
		<path fill="#FFFFFF" d="M273.348,53.827h-8.201c0.368,1.673,1.651,2.713,3.366,2.713c1.183,0,2.267-0.448,3.061-1.264l1.243,1.324
			c-1.058,1.165-2.609,1.837-4.486,1.837c-3.346,0-5.551-2.223-5.551-5.487c0-3.283,2.267-5.509,5.489-5.527
			C272.084,47.422,273.635,49.91,273.348,53.827z M271.308,52.113c-0.082-1.753-1.246-2.813-3.018-2.813
			c-1.716,0-2.92,1.082-3.184,2.813H271.308z"/>
		<path fill="#FFFFFF" d="M282.322,48.503l-0.856,1.736c-0.96-0.594-2.163-0.961-3.121-0.961c-0.917,0-1.592,0.306-1.592,1.082
			c0,1.999,5.774,0.917,5.754,4.855c0,2.222-1.979,3.222-4.162,3.222c-1.592,0-3.285-0.527-4.365-1.51l0.835-1.673
			c0.939,0.838,2.448,1.346,3.633,1.346c0.998,0,1.773-0.345,1.773-1.16c0-2.224-5.712-0.979-5.69-4.897
			c0-2.202,1.916-3.141,3.999-3.141C279.895,47.402,281.344,47.808,282.322,48.503z"/>
	</g>
</g>
<g>
	<g>
		<path fill="#FFFFFF" d="M93.566,10.893c6.311,0,10.7,4.158,10.7,10.175c0,5.99-4.448,10.177-10.874,10.177h-8.461V10.893H93.566z
			 M89.525,27.379h4.159c3.402,0,5.901-2.56,5.901-6.281c0-3.75-2.617-6.338-6.106-6.338h-3.954V27.379z"/>
		<path fill="#FFFFFF" d="M115.982,29.413c-1.046,1.309-2.733,2.035-4.913,2.035c-3.345,0-5.379-2.035-5.379-4.885
			c0-2.936,2.122-4.682,5.96-4.709h4.302v-0.292c0-1.658-1.104-2.616-3.255-2.616c-1.396,0-3.024,0.466-4.653,1.366l-1.396-3.082
			c2.327-1.164,4.333-1.803,7.065-1.803c4.188,0,6.6,2.094,6.63,5.611l0.029,10.206h-4.391V29.413z M115.953,25.894V24.5h-3.517
			c-1.715,0-2.559,0.522-2.559,1.774c0,1.191,0.931,1.976,2.443,1.976C114.208,28.25,115.69,27.232,115.953,25.894z"/>
		<path fill="#FFFFFF" d="M133.629,30.372c-1.163,0.669-2.617,1.077-4.07,1.077c-2.792,0-4.916-1.6-4.916-4.827v-7.241h-2.179V16.3
			h2.179v-4.303h4.45V16.3h4.244v3.112h-4.244v6.454c0,1.309,0.552,1.833,1.512,1.803c0.582,0,1.279-0.203,2.093-0.582
			L133.629,30.372z"/>
		<path fill="#FFFFFF" d="M145.113,29.413c-1.046,1.309-2.733,2.035-4.912,2.035c-3.346,0-5.378-2.035-5.378-4.885
			c0-2.936,2.122-4.682,5.958-4.709h4.304v-0.292c0-1.658-1.105-2.616-3.256-2.616c-1.396,0-3.025,0.466-4.652,1.366l-1.396-3.082
			c2.326-1.164,4.333-1.803,7.066-1.803c4.187,0,6.6,2.094,6.628,5.611l0.03,10.206h-4.392L145.113,29.413L145.113,29.413z
			 M145.086,25.894V24.5h-3.52c-1.714,0-2.559,0.522-2.559,1.774c0,1.191,0.932,1.976,2.442,1.976
			C143.34,28.25,144.823,27.232,145.086,25.894z"/>
		<path fill="#FFFFFF" d="M159.884,31.245V10.893h4.594v20.352H159.884z"/>
		<path fill="#FFFFFF" d="M184.218,21.417v9.828h-4.477v-8.518c0-1.978-1.163-3.199-3.082-3.199
			c-2.239,0.03-3.577,1.717-3.577,4.013v7.705h-4.478V15.603h4.478v2.733c1.104-1.948,2.966-2.879,5.409-2.908
			C181.98,15.428,184.218,17.754,184.218,21.417z"/>
		<path fill="#FFFFFF" d="M199.191,17.144l-1.541,3.052c-1.715-0.959-3.461-1.511-4.768-1.511c-1.046,0-1.805,0.349-1.805,1.164
			c0,2.355,8.257,1.162,8.229,6.688c0,3.197-2.822,4.883-6.368,4.883c-2.531,0-5.002-0.755-6.774-2.179l1.454-3.025
			c1.627,1.25,3.722,1.948,5.438,1.948c1.133,0,1.977-0.378,1.977-1.221c0-2.501-8.113-1.163-8.113-6.659
			c0-3.227,2.764-4.884,6.165-4.884C195.236,15.399,197.447,16.038,199.191,17.144z"/>
		<path fill="#FFFFFF" d="M211.692,30.372c-1.164,0.669-2.616,1.077-4.07,1.077c-2.792,0-4.915-1.6-4.915-4.827v-7.241h-2.18V16.3
			h2.18v-4.303h4.449V16.3h4.244v3.112h-4.244v6.454c0,1.309,0.552,1.833,1.513,1.803c0.583,0,1.277-0.203,2.095-0.582
			L211.692,30.372z"/>
		<path fill="#FFFFFF" d="M218.755,11.155c0,1.453-0.988,2.5-2.411,2.5c-1.427,0-2.415-1.047-2.415-2.5
			c0-1.454,0.988-2.502,2.415-2.502C217.767,8.653,218.755,9.701,218.755,11.155z M214.105,31.245V15.603h4.476v15.643
			L214.105,31.245L214.105,31.245z"/>
		<path fill="#FFFFFF" d="M232.276,30.372c-1.165,0.669-2.617,1.077-4.07,1.077c-2.792,0-4.915-1.6-4.915-4.827v-7.241h-2.18V16.3
			h2.18v-4.303h4.448V16.3h4.245v3.112h-4.245v6.454c0,1.309,0.553,1.833,1.515,1.803c0.58,0,1.279-0.203,2.092-0.582
			L232.276,30.372z"/>
		<path fill="#FFFFFF" d="M249.546,31.245h-4.45v-2.762c-1.075,1.979-2.878,2.936-5.23,2.936c-3.461,0-5.644-2.296-5.644-5.989
			v-9.827h4.479v8.547c0,1.978,1.132,3.171,2.936,3.171c2.15-0.03,3.459-1.715,3.459-3.983v-7.735h4.448v15.642H249.546z"/>
		<path fill="#FFFFFF" d="M263.269,30.372c-1.164,0.669-2.616,1.077-4.07,1.077c-2.791,0-4.914-1.6-4.914-4.827v-7.241h-2.18V16.3
			h2.18v-4.303h4.447V16.3h4.245v3.112h-4.245v6.454c0,1.309,0.554,1.833,1.513,1.803c0.582,0,1.28-0.203,2.095-0.582
			L263.269,30.372z"/>
		<path fill="#FFFFFF" d="M279.957,24.79h-11.225c0.523,1.978,2.034,3.143,4.041,3.143c1.484,0,2.879-0.583,3.956-1.658l2.353,2.383
			c-1.567,1.746-3.865,2.763-6.686,2.763c-5.003,0-8.17-3.197-8.17-7.937c0-4.827,3.284-8.025,8.053-8.025
			C277.775,15.457,280.333,19.091,279.957,24.79z M275.769,22.145c-0.059-2.063-1.396-3.4-3.459-3.4c-1.979,0-3.316,1.337-3.664,3.4
			H275.769z"/>
	</g>
</g>
<path fill="#FFFFFF" d="M26.638,29.366V9.113H13.065v37.303h4.71C17.775,39.716,21.179,33.669,26.638,29.366z"/>
<path fill="#FFFFFF" d="M52.06,23.203V7.342h-8.886v15.602c1.123-0.11,2.262-0.171,3.418-0.171
	C48.463,22.773,50.29,22.924,52.06,23.203z"/>
<path fill="#FFFFFF" d="M33.618,18.748h-5.331v9.407c1.635-1.104,3.424-2.059,5.331-2.85V18.748z"/>
<path fill="#FFFFFF" d="M41.434,2.281h-6.058V24.63c1.92-0.666,3.95-1.16,6.058-1.473V2.281z"/>
<path fill="#FFFFFF" d="M57.188,2.281H54.16v21.321c1.033,0.229,2.044,0.508,3.028,0.827V2.281z"/>
<path fill="#FFFFFF" d="M68.999,45.897c0-0.007,0-0.016,0-0.024c0-0.006-0.002-0.011-0.002-0.017
	c-0.021-4.501-1.922-8.872-5.387-12.353c-0.004-0.005-0.008-0.012-0.013-0.017c-0.005-0.007-0.012-0.011-0.017-0.017
	c-0.003-0.003-0.006-0.008-0.009-0.011c-0.003-0.001-0.005-0.002-0.007-0.004c-4.434-4.409-10.927-6.937-17.824-6.937l-0.106,0.002
	c0,0-0.002,0-0.004,0h-0.133c-0.004,0-0.007,0.002-0.011,0.002c-7.022,0.063-13.547,2.721-17.975,7.348
	c-0.002,0.002-0.008,0.004-0.011,0.009c-0.005,0.004-0.009,0.012-0.016,0.018c-0.01,0.01-0.019,0.018-0.03,0.029
	c-0.007,0.008-0.01,0.017-0.017,0.023c-3.227,3.427-4.939,7.545-4.955,11.966c0,0.006-0.003,0.009-0.003,0.014
	c0,0.008,0.002,0.014,0.002,0.022c0,0.004-0.002,0.009-0.002,0.016c0,0.004,0.003,0.01,0.003,0.014
	c0.013,4.292,1.664,8.353,4.783,11.748l0,0c0,0.002,0.003,0.004,0.005,0.007l0.021,0.022c0,0,0.002,0,0.004,0.002
	c2.124,2.306,4.887,4.212,7.993,5.52c3.259,1.368,6.775,2.063,10.45,2.063c7.023,0,13.589-2.605,18.078-7.197
	c0.002-0.004,0.008-0.006,0.012-0.011c0.009-0.007,0.017-0.019,0.024-0.027c0.01-0.008,0.017-0.016,0.026-0.023
	c0.005-0.005,0.008-0.012,0.012-0.016c3.324-3.459,5.089-7.631,5.105-12.133c0-0.004,0.003-0.011,0.003-0.017
	C68.999,45.912,68.999,45.905,68.999,45.897z M55.52,57.327c-0.162,0.259-0.328,0.51-0.499,0.756
	c-0.062,0.088-0.125,0.171-0.188,0.257c-0.113,0.156-0.228,0.313-0.345,0.462c-0.079,0.099-0.159,0.196-0.238,0.293
	c-0.106,0.13-0.214,0.258-0.322,0.382c-0.087,0.099-0.176,0.193-0.265,0.291c-0.106,0.113-0.214,0.227-0.322,0.335
	c-0.092,0.092-0.186,0.187-0.281,0.276c-0.11,0.107-0.222,0.208-0.334,0.306c-0.095,0.087-0.19,0.172-0.287,0.254
	c-0.118,0.1-0.238,0.192-0.359,0.287c-0.095,0.073-0.188,0.149-0.283,0.219c-0.152,0.111-0.307,0.215-0.461,0.316
	c-0.12,0.081-0.24,0.156-0.361,0.233c-0.165,0.099-0.328,0.197-0.494,0.287c-0.098,0.054-0.197,0.1-0.295,0.15
	c-0.135,0.067-0.269,0.137-0.404,0.198c-0.105,0.05-0.212,0.09-0.317,0.135c-0.132,0.055-0.266,0.109-0.4,0.158
	c-0.107,0.04-0.215,0.076-0.323,0.112c-0.138,0.045-0.275,0.086-0.415,0.126c-0.105,0.028-0.211,0.057-0.317,0.085
	c-0.147,0.036-0.296,0.067-0.443,0.094c-0.1,0.021-0.2,0.043-0.3,0.058c-0.169,0.029-0.34,0.048-0.512,0.066
	c-0.08,0.009-0.16,0.021-0.24,0.027c-0.014,0-0.029,0-0.043,0.004v-7.722c0.074,0.001,0.146,0.001,0.218,0.001
	c0.722,0.018,1.439,0.041,2.147,0.077c0.124,0.007,0.246,0.016,0.367,0.021c0.663,0.036,1.315,0.08,1.959,0.134
	c0.102,0.008,0.207,0.017,0.308,0.025c0.691,0.059,1.369,0.131,2.037,0.21c0.148,0.018,0.295,0.036,0.442,0.055
	c0.668,0.083,1.324,0.176,1.962,0.278c0.015,0.003,0.029,0.004,0.043,0.009c-0.108,0.196-0.221,0.388-0.335,0.575
	C55.585,57.216,55.554,57.27,55.52,57.327z M37.573,59.498c-0.036-0.042-0.073-0.083-0.11-0.126
	c-0.174-0.201-0.345-0.41-0.512-0.626c-0.017-0.021-0.036-0.043-0.053-0.064c-0.532-0.693-1.024-1.46-1.471-2.283
	c0.254-0.036,0.504-0.073,0.764-0.105c0.315-0.04,0.63-0.079,0.95-0.115c0.53-0.057,1.07-0.104,1.615-0.15
	c0.299-0.025,0.591-0.054,0.892-0.077c0.736-0.052,1.484-0.091,2.237-0.121c0.113-0.006,0.225-0.017,0.338-0.019
	c0.804-0.03,1.616-0.041,2.43-0.044v7.693c-0.229-0.025-0.458-0.059-0.686-0.1c-0.021-0.007-0.043-0.01-0.064-0.017
	c-0.224-0.042-0.45-0.097-0.67-0.156c-0.091-0.023-0.18-0.055-0.267-0.081c-0.154-0.048-0.308-0.094-0.458-0.148
	c-0.101-0.036-0.2-0.075-0.299-0.114c-0.14-0.055-0.28-0.113-0.417-0.174c-0.1-0.045-0.2-0.09-0.3-0.138
	c-0.139-0.068-0.276-0.14-0.415-0.213c-0.092-0.049-0.184-0.098-0.275-0.15c-0.156-0.087-0.309-0.183-0.462-0.282
	c-0.07-0.045-0.139-0.084-0.208-0.129c-0.45-0.302-0.887-0.637-1.308-1.007c-0.042-0.036-0.083-0.077-0.124-0.115
	c-0.171-0.153-0.341-0.314-0.507-0.48c-0.045-0.045-0.087-0.089-0.132-0.132C37.894,59.852,37.732,59.677,37.573,59.498z
	 M36.4,33.85c0.02-0.029,0.039-0.061,0.059-0.089c0.274-0.393,0.563-0.76,0.86-1.115c0.057-0.067,0.114-0.136,0.172-0.203
	c0.29-0.334,0.589-0.649,0.899-0.944c0.068-0.066,0.14-0.128,0.209-0.193c0.3-0.273,0.604-0.534,0.918-0.773
	c0.066-0.05,0.131-0.096,0.198-0.144c0.282-0.207,0.573-0.397,0.868-0.573c0.112-0.067,0.223-0.136,0.335-0.2
	c0.306-0.17,0.617-0.321,0.932-0.461c0.139-0.059,0.28-0.115,0.419-0.169c0.283-0.108,0.566-0.206,0.854-0.287
	c0.155-0.046,0.311-0.083,0.467-0.119c0.276-0.064,0.554-0.118,0.834-0.158c0.077-0.01,0.152-0.023,0.228-0.033v7.392
	c-0.799-0.004-1.599-0.014-2.391-0.042c-0.101-0.005-0.197-0.012-0.296-0.016c-0.763-0.031-1.519-0.073-2.267-0.125
	c-0.259-0.019-0.513-0.043-0.771-0.064c-0.587-0.049-1.17-0.101-1.744-0.163c-0.274-0.03-0.544-0.063-0.814-0.096
	c-0.269-0.033-0.528-0.071-0.792-0.107c0.021-0.04,0.044-0.077,0.067-0.116C35.886,34.635,36.135,34.231,36.4,33.85z M46.698,28.369
	c0.182,0.018,0.364,0.04,0.544,0.069c0.091,0.015,0.183,0.033,0.275,0.05c0.151,0.029,0.303,0.06,0.454,0.097
	c0.1,0.025,0.2,0.051,0.299,0.08c0.141,0.039,0.281,0.08,0.42,0.125c0.103,0.033,0.204,0.067,0.306,0.104
	c0.136,0.049,0.271,0.102,0.405,0.157c0.102,0.04,0.203,0.082,0.302,0.127c0.137,0.061,0.272,0.127,0.409,0.195
	c0.093,0.046,0.187,0.091,0.281,0.139c0.178,0.095,0.352,0.199,0.526,0.303c0.115,0.07,0.229,0.145,0.341,0.218
	c0.144,0.094,0.286,0.186,0.429,0.288c0.098,0.072,0.194,0.148,0.292,0.222c0.113,0.087,0.227,0.173,0.339,0.265
	c0.1,0.083,0.199,0.17,0.299,0.257c0.104,0.091,0.21,0.183,0.314,0.28c0.098,0.091,0.195,0.185,0.291,0.28
	c0.102,0.099,0.202,0.203,0.301,0.307c0.094,0.098,0.188,0.197,0.28,0.299c0.1,0.11,0.199,0.226,0.297,0.341
	c0.087,0.102,0.174,0.203,0.258,0.308c0.108,0.133,0.21,0.272,0.314,0.41c0.072,0.094,0.146,0.188,0.216,0.285
	c0.166,0.23,0.327,0.467,0.484,0.712c0.062,0.096,0.121,0.197,0.182,0.296c0.081,0.132,0.163,0.267,0.242,0.404
	c-0.012,0.001-0.025,0.004-0.037,0.007c-0.622,0.098-1.265,0.185-1.916,0.266c-0.158,0.02-0.314,0.04-0.473,0.059
	c-0.645,0.074-1.298,0.143-1.963,0.199c-0.132,0.012-0.267,0.02-0.4,0.03c-0.582,0.048-1.171,0.086-1.765,0.12
	c-0.167,0.009-0.333,0.019-0.5,0.027c-0.674,0.033-1.355,0.057-2.042,0.071c-0.078,0.002-0.155,0.003-0.231,0.004v-7.424
	c0.012,0,0.024,0,0.037,0.001C46.57,28.351,46.634,28.363,46.698,28.369z M57.645,39.309c0.026,0.088,0.055,0.176,0.081,0.263
	c0.107,0.385,0.208,0.775,0.297,1.168c0.01,0.048,0.018,0.096,0.028,0.145c0.076,0.346,0.145,0.697,0.204,1.049
	c0.017,0.1,0.031,0.198,0.046,0.296c0.048,0.311,0.092,0.622,0.128,0.936c0.012,0.111,0.024,0.217,0.035,0.327
	c0.031,0.311,0.056,0.622,0.076,0.937c0.007,0.113,0.014,0.219,0.02,0.331c0.004,0.087,0.004,0.175,0.006,0.261H46.468V37.57
	c0.5-0.009,0.991-0.034,1.487-0.052c0.31-0.014,0.622-0.018,0.93-0.034c1.946-0.096,3.836-0.264,5.629-0.5
	c0.217-0.029,0.425-0.064,0.641-0.095c0.504-0.072,1.016-0.14,1.501-0.224c0.044,0.096,0.09,0.193,0.133,0.289
	c0.061,0.139,0.12,0.279,0.177,0.418c0.093,0.226,0.18,0.455,0.264,0.684c0.049,0.136,0.1,0.269,0.146,0.405
	C57.471,38.741,57.559,39.024,57.645,39.309z M58.414,48.781c-0.016,0.126-0.033,0.251-0.05,0.376
	c-0.083,0.61-0.184,1.215-0.313,1.809c-0.015,0.065-0.034,0.131-0.049,0.199c-0.122,0.534-0.268,1.058-0.425,1.575
	c-0.043,0.138-0.083,0.277-0.129,0.414c-0.177,0.538-0.376,1.063-0.595,1.575c-0.023,0.059-0.051,0.117-0.076,0.174
	c-0.055-0.01-0.116-0.017-0.171-0.025c-0.689-0.117-1.396-0.223-2.119-0.318c-0.116-0.018-0.233-0.029-0.35-0.045
	c-0.72-0.088-1.453-0.171-2.202-0.24c-0.049-0.004-0.096-0.01-0.145-0.016c-0.751-0.064-1.519-0.116-2.294-0.162
	c-0.174-0.012-0.347-0.021-0.52-0.029c-0.751-0.037-1.511-0.065-2.279-0.08c-0.078-0.003-0.152-0.01-0.23-0.01v-7.159l12.099,0.002
	c-0.001,0.043-0.001,0.085-0.003,0.126C58.538,47.563,58.488,48.175,58.414,48.781z M42.083,54.018
	c-0.923,0.034-1.836,0.087-2.736,0.151c-0.211,0.017-0.416,0.041-0.625,0.058c-0.683,0.055-1.361,0.118-2.021,0.191
	c-0.297,0.034-0.584,0.074-0.877,0.113c-0.405,0.051-0.821,0.097-1.214,0.152c-0.022-0.05-0.045-0.104-0.067-0.155
	c-0.213-0.517-0.407-1.049-0.581-1.588c-0.033-0.104-0.063-0.209-0.093-0.312c-0.158-0.523-0.3-1.053-0.419-1.593
	c-0.015-0.065-0.033-0.129-0.046-0.193c-0.121-0.566-0.213-1.14-0.292-1.719c-0.02-0.149-0.041-0.297-0.058-0.447
	c-0.066-0.57-0.114-1.146-0.14-1.726c-0.001-0.044-0.001-0.088-0.003-0.134h11.742v7.146c-0.708,0.004-1.413,0.023-2.115,0.046
	C42.386,54.012,42.232,54.012,42.083,54.018z M33.066,43.045c0.015-0.126,0.034-0.252,0.052-0.38
	c0.083-0.613,0.185-1.222,0.318-1.818c0.014-0.072,0.036-0.14,0.051-0.211c0.124-0.537,0.27-1.063,0.433-1.582
	c0.042-0.137,0.081-0.274,0.126-0.409c0.18-0.542,0.383-1.071,0.605-1.587c0.025-0.06,0.053-0.119,0.08-0.181
	c0.376,0.055,0.771,0.097,1.156,0.146c0.318,0.041,0.631,0.084,0.956,0.119c0.602,0.068,1.219,0.121,1.836,0.172
	c0.255,0.022,0.501,0.05,0.758,0.069c0.882,0.063,1.779,0.113,2.683,0.146c0.153,0.007,0.312,0.007,0.467,0.009
	c0.686,0.022,1.374,0.041,2.065,0.045v7.44H32.91c0.001-0.042,0.001-0.086,0.003-0.129C32.94,44.272,32.993,43.653,33.066,43.045z
	 M60.392,45.022c-0.004-0.104-0.013-0.206-0.017-0.31c-0.009-0.154-0.017-0.308-0.028-0.462c-0.018-0.292-0.042-0.584-0.07-0.872
	c-0.015-0.146-0.028-0.289-0.044-0.435c-0.042-0.353-0.091-0.706-0.146-1.055c-0.012-0.071-0.021-0.143-0.034-0.215
	c-0.072-0.428-0.155-0.851-0.249-1.273c-0.019-0.083-0.04-0.16-0.059-0.243c-0.08-0.339-0.166-0.676-0.259-1.008
	c-0.031-0.108-0.063-0.216-0.095-0.322c-0.093-0.318-0.193-0.629-0.299-0.94c-0.033-0.095-0.065-0.191-0.099-0.286
	c-0.125-0.351-0.26-0.699-0.402-1.042c-0.02-0.046-0.037-0.092-0.056-0.139c-0.015-0.034-0.026-0.069-0.042-0.106
	c0.109-0.021,0.211-0.047,0.319-0.071c0.142-0.03,0.282-0.062,0.422-0.094c0.405-0.094,0.799-0.189,1.181-0.291
	c0.066-0.018,0.133-0.034,0.199-0.051c0.464-0.125,0.908-0.255,1.335-0.392c0.061-0.02,0.12-0.041,0.181-0.06
	c0.194-0.063,0.393-0.125,0.579-0.191c2.663,2.831,4.22,6.286,4.445,9.857H60.392z M61.235,33.756
	c-0.114,0.036-0.239,0.068-0.358,0.104c-0.351,0.104-0.713,0.207-1.091,0.305c-0.218,0.056-0.446,0.11-0.673,0.165
	c-0.335,0.079-0.68,0.156-1.032,0.23c-0.13,0.027-0.265,0.053-0.399,0.081c-0.022-0.042-0.051-0.079-0.071-0.121
	c-0.249-0.45-0.506-0.889-0.779-1.305c-0.035-0.053-0.071-0.104-0.107-0.155c-0.263-0.394-0.537-0.77-0.822-1.132
	c-0.042-0.055-0.084-0.113-0.129-0.167c-0.314-0.392-0.641-0.762-0.98-1.114c-0.038-0.042-0.08-0.078-0.119-0.118
	c-0.338-0.344-0.684-0.668-1.042-0.969c-0.01-0.011-0.019-0.021-0.03-0.03C56.467,30.454,59.064,31.884,61.235,33.756z
	 M37.878,29.521c-0.019,0.017-0.036,0.038-0.056,0.054c-0.328,0.277-0.645,0.58-0.956,0.893c-0.116,0.116-0.23,0.234-0.343,0.353
	c-0.295,0.316-0.584,0.643-0.861,0.99c-0.097,0.12-0.188,0.25-0.282,0.373c-0.213,0.283-0.422,0.577-0.624,0.879
	c-0.092,0.137-0.186,0.271-0.273,0.411c-0.257,0.406-0.5,0.828-0.733,1.265c-0.026,0.051-0.057,0.095-0.084,0.146
	c-0.119-0.019-0.238-0.042-0.354-0.061c-0.424-0.077-0.839-0.156-1.244-0.241c-0.198-0.04-0.398-0.081-0.593-0.124
	c-0.428-0.096-0.839-0.198-1.243-0.302c-0.115-0.03-0.233-0.056-0.345-0.088C32.131,32.036,34.851,30.496,37.878,29.521z
	 M28.438,35.525c0.196,0.059,0.401,0.117,0.604,0.171c0.102,0.029,0.2,0.06,0.303,0.089c0.425,0.114,0.863,0.225,1.316,0.331
	c0.105,0.022,0.214,0.046,0.32,0.071c0.37,0.083,0.75,0.164,1.137,0.24c0.138,0.027,0.276,0.055,0.416,0.081
	c0.116,0.022,0.227,0.047,0.344,0.066c-0.005,0.013-0.009,0.026-0.015,0.039c-0.235,0.572-0.443,1.16-0.632,1.758
	c-0.042,0.132-0.083,0.266-0.124,0.401c-0.178,0.593-0.337,1.194-0.468,1.808c-0.022,0.099-0.037,0.2-0.058,0.299
	c-0.108,0.54-0.198,1.087-0.271,1.64c-0.022,0.156-0.045,0.308-0.062,0.464c-0.071,0.611-0.118,1.23-0.145,1.854
	c-0.002,0.063-0.012,0.125-0.015,0.186h-6.765C24.532,41.572,25.943,38.314,28.438,35.525z M31.088,46.819
	c0.001,0.05,0.009,0.096,0.011,0.148c0.025,0.623,0.072,1.247,0.143,1.861c0.012,0.11,0.028,0.219,0.043,0.329
	c0.073,0.584,0.166,1.163,0.28,1.735c0.012,0.063,0.021,0.127,0.036,0.191c0.125,0.608,0.278,1.202,0.448,1.791
	c0.035,0.12,0.071,0.24,0.107,0.361c0.181,0.584,0.377,1.165,0.601,1.727c0.004,0.01,0.005,0.018,0.01,0.029
	c-0.131,0.022-0.254,0.05-0.384,0.076c-0.142,0.027-0.281,0.052-0.42,0.083c-0.439,0.088-0.867,0.18-1.282,0.278
	c-0.061,0.012-0.123,0.027-0.182,0.039c-0.494,0.117-0.969,0.244-1.429,0.372c-0.066,0.02-0.131,0.04-0.196,0.059
	c-0.219,0.063-0.441,0.125-0.65,0.189c-2.364-2.74-3.701-5.92-3.903-9.271L31.088,46.819z M29.625,57.549
	c0.075-0.021,0.156-0.04,0.233-0.06c0.451-0.123,0.92-0.241,1.408-0.351c0.215-0.051,0.441-0.098,0.663-0.144
	c0.389-0.084,0.786-0.16,1.195-0.237c0.135-0.026,0.271-0.049,0.407-0.07c0.02,0.04,0.046,0.076,0.066,0.118
	c0.255,0.498,0.525,0.982,0.811,1.443c0.052,0.085,0.105,0.162,0.159,0.247c0.277,0.432,0.565,0.85,0.867,1.245
	c0.034,0.044,0.066,0.093,0.099,0.134c0.316,0.407,0.649,0.786,0.989,1.15c0.085,0.092,0.17,0.182,0.256,0.271
	c0.335,0.342,0.681,0.667,1.035,0.969c0.033,0.027,0.063,0.062,0.097,0.089C34.749,61.344,31.925,59.716,29.625,57.549z
	 M53.652,62.273c0.32-0.273,0.631-0.566,0.935-0.871c0.119-0.118,0.237-0.237,0.352-0.363c0.298-0.318,0.589-0.647,0.868-0.997
	c0.099-0.124,0.193-0.254,0.288-0.384c0.216-0.284,0.424-0.577,0.626-0.882c0.094-0.14,0.188-0.273,0.279-0.417
	c0.257-0.409,0.501-0.835,0.737-1.276c0.027-0.053,0.06-0.096,0.087-0.149c0.294,0.059,0.597,0.117,0.88,0.182
	c0.024,0.007,0.049,0.011,0.073,0.017c0.459,0.104,0.896,0.216,1.322,0.329c0.092,0.025,0.184,0.051,0.275,0.076
	c0.388,0.107,0.765,0.219,1.124,0.336c-2.233,1.996-4.93,3.512-7.923,4.473C53.603,62.322,53.625,62.296,53.652,62.273z
	 M62.927,56.459c-0.164-0.058-0.339-0.116-0.511-0.172c-0.107-0.036-0.212-0.075-0.324-0.111c-0.41-0.133-0.833-0.262-1.278-0.383
	c-0.082-0.023-0.17-0.045-0.253-0.066c-0.385-0.104-0.782-0.203-1.191-0.298c-0.132-0.031-0.264-0.063-0.399-0.091
	c-0.122-0.027-0.239-0.058-0.365-0.085c0.007-0.014,0.011-0.032,0.017-0.046c0.236-0.572,0.443-1.16,0.632-1.759
	c0.04-0.129,0.08-0.257,0.119-0.385c0.177-0.598,0.337-1.2,0.47-1.819c0.019-0.088,0.034-0.178,0.051-0.268
	c0.111-0.548,0.202-1.102,0.277-1.664c0.019-0.154,0.043-0.303,0.061-0.457c0.069-0.612,0.117-1.23,0.143-1.854
	c0.003-0.061,0.012-0.12,0.016-0.183h6.766C66.949,50.327,65.499,53.637,62.927,56.459z"/>
<line fill="none" stroke="#FFFFFF" stroke-miterlimit="10" x1="84.284" y1="78.972" x2="282.507" y2="78.972"/>
</svg>
